<svg width="24" height="24" viewBox="0 0 24 24" fill="none" xmlns="http://www.w3.org/2000/svg">
<path d="M14.058 3.41001C12.251 4.17701 11.063 5.86301 11.002 7.79001L11 7.97201L10.757 7.94901C8.36496 7.68001 6.25896 6.43701 4.81296 4.41801C4.71504 4.28118 4.58418 4.17126 4.4325 4.09844C4.28082 4.02562 4.11321 3.99226 3.9452 4.00143C3.77719 4.0106 3.61422 4.06202 3.47136 4.15092C3.32851 4.23982 3.21039 4.36333 3.12796 4.51001L3.03096 4.69601L2.98196 4.79501C2.26296 6.28001 1.79196 8.08501 1.96496 9.99801L1.99496 10.271C2.27796 12.534 3.49496 14.486 5.77396 15.95L5.94696 16.057L5.86596 16.1C4.55096 16.763 3.34796 17.052 2.03896 17C0.982958 16.96 0.592958 18.372 1.52096 18.878C5.11896 20.839 8.98196 21.444 12.313 20.478C16.373 19.298 19.465 16.255 20.648 12.045L20.775 11.55C21.013 10.557 21.147 9.54401 21.176 8.52601L21.179 8.19401L21.572 7.41501L22.012 6.55301L22.226 6.11901L22.344 5.87201C22.609 5.30701 22.8 4.83901 22.918 4.44201L22.932 4.38601L22.94 4.36801C23.16 3.77501 22.774 3.01001 21.999 3.01001L21.877 3.01701C21.798 3.02672 21.7204 3.04586 21.646 3.07401L21.56 3.11201C21.2746 3.2506 20.9806 3.37084 20.68 3.47201L20.324 3.58701L20.053 3.66701L19.281 3.88101C17.945 2.76301 16.137 2.62701 14.269 3.32701L14.058 3.41001Z" fill="#FCFCFC"/>
</svg>
