<svg width="14" height="20" viewBox="0 0 14 20" fill="none" xmlns="http://www.w3.org/2000/svg">
<path fill-rule="evenodd" clip-rule="evenodd" d="M13 7C13 7.56594 12.7867 8.39211 12.359 9.42747C11.941 10.4396 11.3572 11.5608 10.7049 12.686C9.41781 14.9061 7.90675 17.0693 7 18.3198C6.09325 17.0693 4.58219 14.9061 3.29513 12.686C2.64282 11.5608 2.05899 10.4396 1.64095 9.42747C1.21333 8.39211 1 7.56594 1 7C1 3.68629 3.68629 1 7 1C10.3137 1 13 3.68629 13 7ZM14 7C14 10.0667 9.59535 16.4482 7.77397 18.9559C7.38728 19.4883 6.61273 19.4883 6.22603 18.9559C4.40465 16.4482 0 10.0667 0 7C0 3.13401 3.13401 0 7 0C10.866 0 14 3.13401 14 7ZM9 7C9 8.10457 8.10457 9 7 9C5.89543 9 5 8.10457 5 7C5 5.89543 5.89543 5 7 5C8.10457 5 9 5.89543 9 7ZM10 7C10 8.65685 8.65685 10 7 10C5.34315 10 4 8.65685 4 7C4 5.34315 5.34315 4 7 4C8.65685 4 10 5.34315 10 7Z" fill="#FCFCFC"/>
</svg>
